<?xml version="1.0" encoding="utf-8"?>
<!-- Generator: Adobe Illustrator 19.0.0, SVG Export Plug-In . SVG Version: 6.00 Build 0)  -->
<svg version="1.1" id="logosandtypes_com" xmlns="http://www.w3.org/2000/svg" xmlns:xlink="http://www.w3.org/1999/xlink" x="0px"
	 y="0px" viewBox="-391.4 214 124.7 124.7" style="enable-background:new -391.4 214 124.7 124.7;" xml:space="preserve">
<style type="text/css">
	.st0{fill:url(#SVGID_1_);}
	.st1{fill:url(#SVGID_2_);}
	.st2{fill:#00AE4D;}
	.st3{fill:url(#SVGID_3_);}
	.st4{fill:url(#SVGID_4_);}
	.st5{fill:#3E3092;}
	.st6{fill:#C9252C;}
</style>
<linearGradient id="SVGID_1_" gradientUnits="userSpaceOnUse" x1="-2414.125" y1="378.1483" x2="-2412.3103" y2="378.1483" gradientTransform="matrix(28.5354 49.425 -49.425 28.5354 87250.4375 108739.6094)">
	<stop  offset="0" style="stop-color:#FAA61A"/>
	<stop  offset="6.220000e-002" style="stop-color:#FAA61A"/>
	<stop  offset="1" style="stop-color:#FFF200"/>
</linearGradient>
<path class="st0" d="M-346.1,222.8v0.2c8.8,2.2,25.2,20.8,39.7,46c5.9,10.3,14.9,30.6,14.9,30.6l18.3,0.7c1.1,0,2-2.3,2.8-2.8
	s1.5-1.2,2-2.1l0.1-0.1c1-1.7,1.4-4,1.4-6.8c0-8.6-4.3-21.8-12.1-35.3c-10.3-17.9-23.4-30.3-31.2-30.3h-35.9L-346.1,222.8
	L-346.1,222.8z"/>
<linearGradient id="SVGID_2_" gradientUnits="userSpaceOnUse" x1="-2501.1409" y1="337.0046" x2="-2499.1079" y2="337.0046" gradientTransform="matrix(-15.2243 -8.7897 -8.7897 15.2243 -35397.1758 -26797.2363)">
	<stop  offset="0" style="stop-color:#0089CF"/>
	<stop  offset="0.1784" style="stop-color:#0089CF"/>
	<stop  offset="1" style="stop-color:#00B6F1"/>
</linearGradient>
<path class="st1" d="M-268.4,295.5c-0.5,0.8-1.2,1.5-2,2s-1.8,0.7-2.8,0.7h-38V330h20.6c0.8,0,1.5-0.2,2.1-0.5s1.1-0.9,1.5-1.5
	L-268.4,295.5z"/>
<path class="st2" d="M-292.2,298.2h19c1,0,2-0.2,2.8-0.7s1.5-1.2,2-2.1l-18.8,32.5l-0.1,0.1C-284.5,323.7-286.6,312.5-292.2,298.2"
	/>
<linearGradient id="SVGID_3_" gradientUnits="userSpaceOnUse" x1="-2387.9888" y1="420.9251" x2="-2385.9553" y2="420.9251" gradientTransform="matrix(44.7589 -25.8416 25.8416 44.7589 95615.3359 -80256.7969)">
	<stop  offset="0" style="stop-color:#90278C"/>
	<stop  offset="1" style="stop-color:#E92627"/>
</linearGradient>
<path class="st3" d="M-391,288.7c0,2.7,0.5,5,1.4,6.6l18.8,32.5c-4.1-7.3,3.9-32.1,19.4-58.8c15.5-26.8,33.1-46.2,41.3-46.2h-37.7
	c-7.8,0-20.8,12.4-31.2,30.3c-7.7,13.3-12,26.5-12.1,35.1C-391.1,288.2-391,288.7-391,288.7z"/>
<linearGradient id="SVGID_4_" gradientUnits="userSpaceOnUse" x1="-2320.0728" y1="441.5429" x2="-2318.0398" y2="441.5429" gradientTransform="matrix(15.2243 -8.7897 8.7897 15.2243 31063.7617 -26797.2344)">
	<stop  offset="0" style="stop-color:#0089CF"/>
	<stop  offset="0.1784" style="stop-color:#0089CF"/>
	<stop  offset="1" style="stop-color:#00B6F1"/>
</linearGradient>
<path class="st4" d="M-389.5,295.5l18.7,32.4c0.4,0.7,0.9,1.2,1.5,1.5s1.3,0.5,2.1,0.5h20.6v-31.8h-38c-1,0-2-0.2-2.8-0.7
	C-388.3,297-389,296.3-389.5,295.5z"/>
<path class="st5" d="M-365.7,298.2h-19c-1,0-2-0.2-2.8-0.7s-1.5-1.2-2-2.1l18.7,32.5l0.1,0.1C-373.3,323.7-371.3,312.5-365.7,298.2"
	/>
<path class="st6" d="M-310.2,222.8h-37.6c4.3,0,11.1,5.2,18.9,14C-321.2,228.1-314.5,222.9-310.2,222.8"/>
</svg>
